<svg width="616" height="616" viewBox="0 0 616 616" fill="none" xmlns="http://www.w3.org/2000/svg">
<g filter="url(#filter0_dd)">
<circle cx="294" cy="294" r="294" fill="#3D72A4"/>
<circle cx="294" cy="294" r="294" fill="url(#paint0_linear)"/>
</g>
<g filter="url(#filter1_i)">
<path d="M222.734 376.875C222.172 378.844 221.188 380.438 219.781 381.656C218.469 382.781 216.922 383.672 215.141 384.328C213.359 384.984 211.438 385.453 209.375 385.734C207.406 385.922 205.531 386.016 203.75 386.016C201.031 386.016 198.359 385.875 195.734 385.594C193.109 385.219 190.484 384.797 187.859 384.328C186.453 384.141 184.672 384 182.516 383.906C180.453 383.812 178.391 383.578 176.328 383.203C174.266 382.828 172.484 382.172 170.984 381.234C169.578 380.203 168.875 378.656 168.875 376.594C168.875 374.25 169.344 372.562 170.281 371.531C171.219 370.406 172.391 369.656 173.797 369.281C175.203 368.812 176.75 368.531 178.438 368.438C180.125 368.344 181.672 368.062 183.078 367.594C184.484 367.031 185.656 366.188 186.594 365.062C187.531 363.844 188 361.922 188 359.297C188 357.609 187.812 355.922 187.438 354.234C187.156 352.547 186.828 350.906 186.453 349.312C186.078 347.625 185.703 345.984 185.328 344.391C185.047 342.703 184.906 341.016 184.906 339.328C184.906 338.203 185.234 337.031 185.891 335.812C186.641 334.5 187.016 333.047 187.016 331.453C187.016 328.547 186.781 325.828 186.312 323.297C185.844 320.766 185.094 318.141 184.062 315.422C183.406 313.641 183.078 312 183.078 310.5C183.078 309.094 183.359 307.734 183.922 306.422C184.578 305.109 184.906 303.703 184.906 302.203C184.906 300.234 184.578 298.359 183.922 296.578C183.266 294.703 182.938 292.781 182.938 290.812C182.938 288.188 183.219 285.609 183.781 283.078C184.344 280.547 184.625 277.969 184.625 275.344C184.625 273.562 184.438 271.594 184.062 269.438C183.688 267.281 183.172 265.125 182.516 262.969C181.953 260.719 181.344 258.562 180.688 256.5C180.031 254.344 179.422 252.422 178.859 250.734C176.984 251.578 175.438 252.703 174.219 254.109C173.094 255.422 172.156 256.922 171.406 258.609C170.75 260.297 170.188 262.078 169.719 263.953C169.344 265.828 169.016 267.656 168.734 269.438C168.078 273.094 167.047 276.656 165.641 280.125C164.328 283.594 163.391 287.156 162.828 290.812C162.078 295.312 161.609 299.766 161.422 304.172C161.328 308.578 161.094 312.984 160.719 317.391C160.438 321.703 159.922 326.016 159.172 330.328C158.422 334.641 157.062 338.953 155.094 343.266C154.344 344.859 153.875 346.359 153.688 347.766C153.5 349.172 153.406 350.625 153.406 352.125C153.406 353.438 153.453 354.75 153.547 356.062C153.641 357.375 153.688 358.734 153.688 360.141C153.688 363.047 153.359 365.25 152.703 366.75C152.141 368.156 151.484 369.328 150.734 370.266C149.984 371.203 149.234 372.141 148.484 373.078C147.734 373.922 147.172 375.234 146.797 377.016C146.516 378.516 145.719 379.688 144.406 380.531C143.188 381.281 141.734 381.938 140.047 382.5C138.359 382.969 136.672 383.391 134.984 383.766C133.297 384.047 131.891 384.469 130.766 385.031C129.734 382.875 128.469 380.859 126.969 378.984C125.562 377.109 124.25 375.141 123.031 373.078C121.719 370.922 120.875 368.625 120.5 366.188C120.219 363.75 119.656 361.312 118.812 358.875C118.438 357.75 117.969 356.766 117.406 355.922C116.938 355.078 116.469 354.234 116 353.391C115.625 352.453 115.25 351.516 114.875 350.578C114.594 349.641 114.453 348.516 114.453 347.203C114.453 346.172 114.5 345.234 114.594 344.391C114.688 343.453 114.734 342.469 114.734 341.438C114.734 339.188 114.359 336.797 113.609 334.266C112.109 329.484 110.797 324.797 109.672 320.203C108.547 315.609 107.75 310.781 107.281 305.719C106.812 301.125 106.438 296.484 106.156 291.797C105.875 287.109 104.891 282.562 103.203 278.156C102.359 276 101.375 273.938 100.25 271.969C99.125 270 98.1875 267.938 97.4375 265.781C97.25 265.312 97.0625 264.562 96.875 263.531C96.7812 262.5 96.5938 261.422 96.3125 260.297C96.125 259.172 95.8438 258.188 95.4688 257.344C95.1875 256.406 94.8594 255.891 94.4844 255.797C94.0156 256.172 93.6875 256.734 93.5 257.484C92.8438 259.172 92.3281 260.344 91.9531 261C91.5781 261.656 91.2031 262.219 90.8281 262.688C90.5469 263.062 90.1719 263.484 89.7031 263.953C89.2344 264.422 88.5781 265.266 87.7344 266.484C86.9844 267.516 86.6094 268.641 86.6094 269.859C86.6094 272.016 87.0781 274.125 88.0156 276.188C88.9531 278.156 89.4219 280.219 89.4219 282.375C89.4219 283.406 89.2344 284.484 88.8594 285.609C88.4844 286.641 88.2969 287.672 88.2969 288.703C88.2969 291.422 88.6719 294.141 89.4219 296.859C90.2656 299.484 90.6875 302.156 90.6875 304.875C90.6875 307.031 90.3594 309.141 89.7031 311.203C89.0469 313.172 88.7188 315.234 88.7188 317.391C88.7188 319.641 88.9531 321.891 89.4219 324.141C89.9844 326.297 90.2656 328.5 90.2656 330.75C90.2656 332.625 90.0781 334.453 89.7031 336.234C89.3281 337.922 88.9062 339.656 88.4375 341.438C88.0625 343.219 87.6875 345 87.3125 346.781C86.9375 348.562 86.75 350.391 86.75 352.266C86.75 356.109 87.5 358.828 89 360.422C90.5 362.016 92.2812 363.234 94.3438 364.078C96.5 364.922 98.7031 365.766 100.953 366.609C103.203 367.359 105.125 368.812 106.719 370.969C105.875 372.375 105.219 373.922 104.75 375.609C104.375 377.203 103.766 378.703 102.922 380.109C102.172 381.328 101.375 382.172 100.531 382.641C99.7812 383.109 98.9844 383.438 98.1406 383.625C97.3906 383.719 96.5469 383.859 95.6094 384.047C94.6719 384.141 93.6875 384.469 92.6562 385.031C91.625 385.594 90.875 386.156 90.4062 386.719C90.0312 387.188 89.6562 387.609 89.2812 387.984C88.9062 388.453 88.3438 388.781 87.5938 388.969C86.9375 389.25 85.8594 389.391 84.3594 389.391C82.7656 389.391 81.1719 389.203 79.5781 388.828C77.9844 388.453 76.3906 388.266 74.7969 388.266C73.1094 388.266 71.4688 388.5 69.875 388.969C68.2812 389.531 66.6406 389.812 64.9531 389.812C62.9844 389.812 61.0156 389.438 59.0469 388.688C57.0781 388.031 55.2969 387.094 53.7031 385.875C52.2031 384.562 50.9375 383.062 49.9062 381.375C48.9688 379.594 48.5 377.625 48.5 375.469C48.5 372.281 49.1562 369.844 50.4688 368.156C51.7812 366.469 53.4219 365.156 55.3906 364.219C57.4531 363.188 59.6562 362.344 62 361.688C64.3438 360.938 66.5469 360 68.6094 358.875C69.0781 357.281 69.3594 355.688 69.4531 354.094C69.5469 352.406 69.5938 350.719 69.5938 349.031C69.5938 346.312 69.4531 343.594 69.1719 340.875C68.9844 338.156 68.8906 335.438 68.8906 332.719C68.8906 330.938 69.0781 329.203 69.4531 327.516C69.8281 325.734 70.0156 323.906 70.0156 322.031C70.0156 321.094 69.875 320.203 69.5938 319.359C68.2812 315.891 67.4375 312.562 67.0625 309.375C66.7812 306.188 66.6406 302.719 66.6406 298.969C66.6406 297.375 66.8281 295.828 67.2031 294.328C67.6719 292.828 68.1406 291.328 68.6094 289.828C69.1719 288.328 69.6406 286.828 70.0156 285.328C70.4844 283.828 70.7188 282.281 70.7188 280.688C70.7188 277.781 70.5312 274.922 70.1562 272.109C69.7812 269.297 69.5938 266.438 69.5938 263.531C69.5938 261.656 69.7812 259.828 70.1562 258.047C70.5312 256.266 70.7188 254.438 70.7188 252.562C70.7188 250.688 70.3438 248.906 69.5938 247.219C68.8438 245.438 68.4688 243.609 68.4688 241.734C68.4688 240.422 68.7969 239.25 69.4531 238.219C70.2031 237.188 70.5781 236.016 70.5781 234.703C70.5781 233.953 70.2031 233.203 69.4531 232.453C68.7031 231.703 68.3281 230.484 68.3281 228.797C68.3281 227.391 68.375 225.984 68.4688 224.578C68.6562 223.172 68.75 221.766 68.75 220.359C68.75 217.547 68.2812 215.344 67.3438 213.75C66.4062 212.062 65.2344 210.797 63.8281 209.953C62.5156 209.016 61.0625 208.359 59.4688 207.984C57.875 207.609 56.375 207.234 54.9688 206.859C53.6562 206.391 52.5312 205.875 51.5938 205.312C50.6562 204.75 50.1875 203.812 50.1875 202.5C50.1875 201.281 50.8438 200.062 52.1562 198.844C53.5625 197.531 55.2969 196.266 57.3594 195.047C59.4219 193.828 61.6719 192.656 64.1094 191.531C66.5469 190.312 68.7969 189.234 70.8594 188.297C72.9219 187.359 74.6562 186.562 76.0625 185.906C77.5625 185.25 78.4062 184.781 78.5938 184.5C78.9688 185.156 79.4844 185.625 80.1406 185.906C80.7969 186.094 81.5 186.234 82.25 186.328C83.0938 186.328 83.8906 186.328 84.6406 186.328C85.4844 186.328 86.1875 186.422 86.75 186.609C87.6875 186.891 88.3906 187.266 88.8594 187.734C89.3281 188.203 89.75 188.672 90.125 189.141C90.5938 189.609 91.2031 190.078 91.9531 190.547C92.7031 191.016 93.8281 191.438 95.3281 191.812C98.8906 192.75 101.562 194.109 103.344 195.891C105.219 197.578 106.156 200.391 106.156 204.328C106.156 205.359 106.062 206.391 105.875 207.422C105.688 208.359 105.594 209.344 105.594 210.375L109.109 220.359C109.391 221.391 109.672 222.469 109.953 223.594C110.328 224.625 110.609 225.656 110.797 226.688C111.828 227.531 112.625 228.797 113.188 230.484C113.75 232.172 114.125 234 114.312 235.969C114.594 237.844 114.781 239.719 114.875 241.594C114.969 243.469 115.109 245.062 115.297 246.375C115.578 248.531 116.047 250.641 116.703 252.703C117.453 254.672 117.828 256.734 117.828 258.891C117.828 260.203 117.594 261.516 117.125 262.828C116.75 264.141 116.562 265.5 116.562 266.906C116.562 269.344 116.891 271.734 117.547 274.078C118.203 276.422 118.953 278.766 119.797 281.109C120.641 283.359 121.391 285.656 122.047 288C122.797 290.344 123.219 292.734 123.312 295.172C123.312 296.297 123.406 298.031 123.594 300.375C123.875 302.719 124.203 305.344 124.578 308.25C125.047 311.062 125.562 314.016 126.125 317.109C126.781 320.109 127.531 322.875 128.375 325.406C129.312 327.938 130.344 330 131.469 331.594C132.688 333.188 134 333.984 135.406 333.984C137.094 333.984 138.172 333.516 138.641 332.578C139.109 331.547 139.391 330.375 139.484 329.062C139.578 327.75 139.719 326.438 139.906 325.125C140.094 323.812 140.75 322.875 141.875 322.312C142.812 321.75 143.609 320.672 144.266 319.078C145.016 317.391 145.625 315.562 146.094 313.594C146.562 311.531 146.891 309.562 147.078 307.688C147.359 305.719 147.547 304.219 147.641 303.188C147.922 298.312 148.062 293.297 148.062 288.141C148.062 282.984 148.156 277.828 148.344 272.672C148.531 267.422 148.953 262.312 149.609 257.344C150.266 252.281 151.344 247.406 152.844 242.719C153.125 241.969 153.5 241.266 153.969 240.609C154.438 239.953 154.906 239.297 155.375 238.641C155.844 237.891 156.219 237.188 156.5 236.531C156.875 235.781 157.062 234.984 157.062 234.141C157.062 233.578 156.922 233.109 156.641 232.734C156.359 232.266 156.031 231.891 155.656 231.609C155.375 231.328 155.094 231.047 154.812 230.766C154.531 230.484 154.391 230.156 154.391 229.781C154.391 229.312 154.531 228.984 154.812 228.797C155.094 228.516 155.375 228.234 155.656 227.953C156.969 226.453 157.766 224.391 158.047 221.766C158.422 219.047 158.656 216.188 158.75 213.188C158.844 210.094 158.938 207.094 159.031 204.188C159.219 201.188 159.828 198.656 160.859 196.594C161.984 197.062 163.062 197.297 164.094 197.297C165.406 197.297 166.672 197.062 167.891 196.594C169.109 196.031 170.281 195.469 171.406 194.906C172.625 194.344 173.844 193.828 175.062 193.359C176.375 192.797 177.734 192.516 179.141 192.516C179.609 192.516 180.125 192.562 180.688 192.656C181.25 192.656 181.766 192.656 182.234 192.656C184.109 192.656 185.797 192.234 187.297 191.391C188.797 190.547 190.344 190.125 191.938 190.125C192.594 190.125 193.062 190.266 193.344 190.547C193.625 190.828 193.812 191.109 193.906 191.391C194.094 191.672 194.281 191.953 194.469 192.234C194.656 192.516 194.938 192.656 195.312 192.656C196.906 192.656 198.5 192.469 200.094 192.094C201.781 191.719 203.422 191.531 205.016 191.531C206.047 191.531 206.891 191.672 207.547 191.953C208.203 192.141 208.859 192.703 209.516 193.641C210.266 194.766 211.297 195.516 212.609 195.891C213.922 196.172 215.234 196.5 216.547 196.875C217.859 197.156 218.984 197.625 219.922 198.281C220.953 198.844 221.469 199.922 221.469 201.516C221.469 204.797 220.672 207.047 219.078 208.266C217.484 209.484 215.609 210.328 213.453 210.797C211.391 211.172 209.328 211.547 207.266 211.922C205.297 212.203 203.891 213.094 203.047 214.594C202.109 216.188 201.547 217.922 201.359 219.797C201.172 221.672 200.703 223.5 199.953 225.281C199.672 226.031 199.438 226.734 199.25 227.391C199.062 228.047 198.969 228.75 198.969 229.5C198.969 231 199.156 232.453 199.531 233.859C199.906 235.266 200.328 236.672 200.797 238.078C201.359 239.391 201.875 240.75 202.344 242.156C202.812 243.562 203.141 244.969 203.328 246.375C203.891 251.438 204.172 256.5 204.172 261.562C204.172 264.562 203.984 267.562 203.609 270.562C203.328 273.562 203 276.562 202.625 279.562C202.25 282.562 201.875 285.562 201.5 288.562C201.219 291.469 201.078 294.375 201.078 297.281C201.078 299.531 200.375 301.359 198.969 302.766L198.828 306C198.828 308.719 199.016 311.438 199.391 314.156C199.766 316.875 200.188 319.594 200.656 322.312C201.125 324.938 201.547 327.609 201.922 330.328C202.297 333.047 202.484 335.766 202.484 338.484C202.484 342.141 201.969 345.75 200.938 349.312C199.906 352.875 199.391 356.484 199.391 360.141C199.391 362.859 199.953 365.016 201.078 366.609C202.203 368.203 204.266 369 207.266 369C208.578 369 209.891 368.953 211.203 368.859C212.609 368.672 213.969 368.578 215.281 368.578C216.594 368.578 217.953 368.719 219.359 369C220.766 369.281 221.984 369.938 223.016 370.969C223.016 371.344 223.062 371.906 223.156 372.656C223.344 373.406 223.438 374.156 223.438 374.906C223.531 375.562 223.531 376.125 223.438 376.594C223.344 377.062 223.109 377.156 222.734 376.875ZM92.7969 238.219C92.7969 236.438 92.5156 234.656 91.9531 232.875C91.4844 231 90.4062 229.594 88.7188 228.656C88.7188 229.5 88.6719 230.391 88.5781 231.328C88.5781 232.172 88.5781 233.016 88.5781 233.859C88.5781 235.359 88.7656 236.859 89.1406 238.359C89.6094 239.766 90.7812 240.516 92.6562 240.609C92.75 240.234 92.7969 239.859 92.7969 239.484C92.7969 239.109 92.7969 238.688 92.7969 238.219ZM202.484 368.578C202.484 368.016 202.109 367.547 201.359 367.172C200.609 366.797 200 366.609 199.531 366.609C199.25 366.609 198.828 366.656 198.266 366.75C197.797 366.844 197.281 366.984 196.719 367.172C196.25 367.359 195.828 367.594 195.453 367.875C195.078 368.156 194.891 368.484 194.891 368.859C194.891 369.422 195.312 369.797 196.156 369.984C197.094 370.078 197.797 370.125 198.266 370.125C198.734 370.125 199.531 370.031 200.656 369.844C201.875 369.656 202.484 369.234 202.484 368.578ZM140.75 348.891C140.375 348.891 140 348.891 139.625 348.891C139.344 348.797 139.016 348.75 138.641 348.75C137.047 348.75 135.641 349.078 134.422 349.734C133.297 350.297 132.734 351.516 132.734 353.391V354.938C133.109 354.938 133.438 354.984 133.719 355.078C134.094 355.078 134.469 355.078 134.844 355.078C136.438 355.078 137.844 354.797 139.062 354.234C140.281 353.578 140.891 352.312 140.891 350.438L140.75 348.891Z" fill="white"/>
<path d="M393.453 316.828C393.453 321.609 393.125 326.297 392.469 330.891C391.906 335.484 391.484 340.172 391.203 344.953C390.547 344.297 389.797 343.781 388.953 343.406C388.203 342.938 387.406 342.703 386.562 342.703C385.531 342.703 384.547 343.031 383.609 343.688C382.672 344.344 382.203 345.188 382.203 346.219C382.203 347.344 382.719 348.094 383.75 348.469C384.875 348.844 386 349.031 387.125 349.031C388.062 349.031 388.719 348.984 389.094 348.891C389.094 350.016 388.766 351.188 388.109 352.406C387.547 353.531 386.797 354.656 385.859 355.781C385.016 356.906 384.078 357.984 383.047 359.016C382.109 359.953 381.266 360.797 380.516 361.547C379.953 362.109 379.344 362.906 378.688 363.938C378.031 364.969 377.281 366 376.438 367.031C375.688 367.969 374.891 368.812 374.047 369.562C373.203 370.219 372.359 370.547 371.516 370.547C370.578 370.547 369.828 370.312 369.266 369.844C368.703 369.281 368.047 369 367.297 369C366.266 369 365.609 369.562 365.328 370.688C365.141 371.719 365.047 372.75 365.047 373.781V375.469C365.047 375.938 364.062 376.547 362.094 377.297C360.125 378.047 357.734 378.891 354.922 379.828C352.203 380.672 349.344 381.562 346.344 382.5C343.438 383.344 341 384.188 339.031 385.031C335.188 386.625 331.297 387.938 327.359 388.969C323.422 390 319.344 390.516 315.125 390.516C312.031 390.516 309.031 390.094 306.125 389.25C303.312 388.5 300.453 387.656 297.547 386.719C294.734 385.688 291.875 384.797 288.969 384.047C286.156 383.203 283.203 382.781 280.109 382.781C278.891 382.781 277.297 382.969 275.328 383.344C273.359 383.719 271.859 384.281 270.828 385.031C270.359 385.406 269.891 386.062 269.422 387C268.953 388.031 268.391 388.547 267.734 388.547C267.266 388.547 266.609 388.359 265.766 387.984C264.922 387.609 264.312 387.328 263.938 387.141C261.781 386.016 259.953 384.562 258.453 382.781C256.953 380.906 255.688 378.891 254.656 376.734C253.625 374.578 252.875 372.328 252.406 369.984C251.938 367.547 251.703 365.203 251.703 362.953C251.703 361.359 251.844 359.812 252.125 358.312C252.5 356.719 252.688 355.125 252.688 353.531C252.688 351.281 252.406 349.078 251.844 346.922C251.375 344.766 251.141 342.562 251.141 340.312C251.141 338.719 251.375 337.125 251.844 335.531C252.406 333.938 252.688 332.344 252.688 330.75C252.688 329.531 252.406 328.406 251.844 327.375C251.281 326.25 251 325.078 251 323.859C251 323.016 251.281 322.312 251.844 321.75C252.5 321.188 252.828 320.531 252.828 319.781C252.828 318.656 252.781 317.531 252.688 316.406C252.594 315.281 252.547 314.156 252.547 313.031C252.547 312.469 252.547 311.672 252.547 310.641C252.641 309.516 252.781 308.438 252.969 307.406C253.156 306.375 253.484 305.484 253.953 304.734C254.422 303.984 255.078 303.609 255.922 303.609C257.609 303.609 259.297 304.688 260.984 306.844C262.766 308.906 264.359 311.344 265.766 314.156C267.266 316.969 268.484 319.781 269.422 322.594C270.359 325.406 270.828 327.516 270.828 328.922C270.828 329.391 270.641 329.859 270.266 330.328C269.891 330.703 269.422 330.891 268.859 330.891C269.234 331.547 269.656 332.531 270.125 333.844C270.594 335.156 270.828 336.188 270.828 336.938C270.828 338.062 270.641 339.141 270.266 340.172C269.984 341.203 269.844 342.281 269.844 343.406C269.844 344.344 270.031 345.234 270.406 346.078C270.875 346.922 271.344 347.719 271.812 348.469C272.562 349.594 273.219 350.438 273.781 351C274.344 351.562 274.953 351.984 275.609 352.266C276.266 352.453 276.969 352.594 277.719 352.688C278.562 352.781 279.641 352.875 280.953 352.969C282.828 355.688 284.938 358.219 287.281 360.562C289.625 362.906 292.156 365.016 294.875 366.891C299.094 367.828 303.266 368.578 307.391 369.141C311.516 369.703 315.688 369.984 319.906 369.984C323.375 369.984 326.375 369.609 328.906 368.859C331.531 368.109 333.922 367.125 336.078 365.906C338.328 364.688 340.484 363.328 342.547 361.828C344.609 360.234 346.766 358.594 349.016 356.906C350.609 355.781 352.297 354.703 354.078 353.672C355.859 352.641 357.594 351.562 359.281 350.438C360.969 349.312 362.562 348.094 364.062 346.781C365.562 345.375 366.828 343.781 367.859 342C368.516 340.875 369.453 339.75 370.672 338.625C371.984 337.406 372.641 336.094 372.641 334.688C372.641 334.125 372.594 333.703 372.5 333.422C372.125 330.422 371.844 327.516 371.656 324.703C371.562 321.797 371.422 318.844 371.234 315.844C371.047 313.031 370.438 310.922 369.406 309.516C368.375 308.016 367.062 306.797 365.469 305.859C363.969 304.828 362.328 303.844 360.547 302.906C358.766 301.969 357.031 300.656 355.344 298.969C353.562 297.188 351.547 296.062 349.297 295.594C347.141 295.125 344.891 294.844 342.547 294.75C340.203 294.656 337.859 294.516 335.516 294.328C333.266 294.047 331.156 293.156 329.188 291.656C328.625 291.281 328.156 291.094 327.781 291.094C326.938 291.094 326.094 291.375 325.25 291.938C324.5 292.406 323.656 292.641 322.719 292.641C321.312 292.641 319.859 292.453 318.359 292.078C316.953 291.703 315.547 291.281 314.141 290.812C312.734 290.344 311.328 289.875 309.922 289.406C308.516 288.938 307.109 288.609 305.703 288.422C303.828 288.141 302.281 287.953 301.062 287.859C299.938 287.766 298.859 287.625 297.828 287.438C296.891 287.156 295.859 286.781 294.734 286.312C293.609 285.75 292.203 284.906 290.516 283.781C285.641 280.594 280.438 278.25 274.906 276.75C273.875 274.125 272.516 271.453 270.828 268.734C269.797 268.078 268.766 267.469 267.734 266.906C266.797 266.25 265.859 265.547 264.922 264.797C264.359 263.859 263.609 262.219 262.672 259.875C261.828 257.531 260.984 255.047 260.141 252.422C259.297 249.703 258.547 247.172 257.891 244.828C257.328 242.484 257.047 240.797 257.047 239.766C257.047 237.609 257.281 235.547 257.75 233.578C258.219 231.609 259.297 229.828 260.984 228.234C261.266 228.047 261.594 227.812 261.969 227.531C262.438 227.156 262.672 226.734 262.672 226.266C262.672 225.797 262.297 225.469 261.547 225.281C260.891 225 260.562 224.484 260.562 223.734C260.562 223.641 260.609 223.5 260.703 223.312C260.797 223.031 260.844 222.797 260.844 222.609C261.5 220.547 262.484 218.578 263.797 216.703C265.109 214.828 266.609 213.047 268.297 211.359C269.984 209.672 271.719 208.125 273.5 206.719C275.375 205.219 277.156 203.859 278.844 202.641C280.062 201.797 281.094 200.719 281.938 199.406C282.875 198.094 283.859 197.156 284.891 196.594C285.547 196.594 286.203 196.594 286.859 196.594C287.516 196.5 288.172 196.453 288.828 196.453C289.578 196.453 290.234 196.5 290.797 196.594C291.453 196.594 292.156 196.594 292.906 196.594C293.938 196.219 294.641 195.797 295.016 195.328C295.391 194.766 295.766 194.25 296.141 193.781C296.516 193.312 296.984 192.938 297.547 192.656C298.203 192.375 299.328 192.234 300.922 192.234C301.953 192.234 302.984 192.281 304.016 192.375C305.047 192.375 306.078 192.375 307.109 192.375C310.672 192.375 314.188 192.328 317.656 192.234C321.219 192.141 324.781 192.094 328.344 192.094C330.875 192.094 333.359 192.141 335.797 192.234C338.328 192.234 340.859 192.422 343.391 192.797C345.078 192.984 346.719 193.359 348.312 193.922C349.906 194.391 351.594 194.625 353.375 194.625C355.062 194.625 356.234 194.297 356.891 193.641C357.641 192.984 358.203 192.281 358.578 191.531C359.047 190.781 359.562 190.078 360.125 189.422C360.688 188.766 361.672 188.438 363.078 188.438C365.047 188.438 367.062 188.953 369.125 189.984C371.281 191.016 373.297 191.859 375.172 192.516L375.031 193.078C374.75 193.922 374.609 194.859 374.609 195.891C374.609 197.484 374.844 199.078 375.312 200.672C375.875 202.172 376.438 203.672 377 205.172C377.562 206.672 378.078 208.172 378.547 209.672C379.109 211.172 379.391 212.766 379.391 214.453C379.391 215.484 379.297 216.469 379.109 217.406C378.922 218.25 378.828 219.188 378.828 220.219C378.828 222.094 379.203 223.453 379.953 224.297C380.703 225.047 381.078 225.75 381.078 226.406C381.078 227.156 380.75 227.812 380.094 228.375C379.438 228.844 379.109 229.594 379.109 230.625C379.109 233.062 379.25 235.5 379.531 237.938C379.812 240.281 379.953 242.672 379.953 245.109C379.953 245.953 379.906 247.219 379.812 248.906C379.812 250.594 379.625 252.281 379.25 253.969C378.969 255.562 378.453 256.969 377.703 258.188C377.047 259.406 376.062 260.016 374.75 260.016C373.344 260.016 371.984 259.5 370.672 258.469C369.359 257.344 368.281 256.266 367.438 255.234C366.219 253.922 365.328 252.516 364.766 251.016C364.203 249.422 363.734 247.781 363.359 246.094C362.984 244.406 362.562 242.766 362.094 241.172C361.625 239.484 360.922 237.938 359.984 236.531C358.484 234.375 357.031 232.219 355.625 230.062C354.312 227.812 353 225.562 351.688 223.312C350.656 221.625 349.766 220.453 349.016 219.797C348.266 219.141 347.469 218.719 346.625 218.531C345.781 218.25 344.797 218.109 343.672 218.109C342.641 218.109 341.328 217.969 339.734 217.688C338.047 217.406 336.359 216.984 334.672 216.422C333.078 215.859 331.438 215.344 329.75 214.875C328.156 214.312 326.516 213.844 324.828 213.469C323.141 213 321.453 212.766 319.766 212.766C317.047 212.766 314.281 213.188 311.469 214.031C308.656 214.875 305.844 215.953 303.031 217.266C300.219 218.484 297.453 219.797 294.734 221.203C292.016 222.516 289.391 223.641 286.859 224.578C284.516 229.547 283.344 234.891 283.344 240.609C283.344 244.734 283.812 248.109 284.75 250.734C285.688 253.359 286.953 255.609 288.547 257.484C290.234 259.266 292.109 260.859 294.172 262.266C296.328 263.672 298.578 265.172 300.922 266.766C303.359 268.359 305.75 269.438 308.094 270C310.531 270.469 313.156 270.703 315.969 270.703C317.562 270.703 319.109 270.656 320.609 270.562C322.203 270.469 323.797 270.422 325.391 270.422C327.172 270.422 328.859 270.656 330.453 271.125C332.047 271.594 333.594 272.156 335.094 272.812C336.688 273.375 338.281 273.891 339.875 274.359C341.469 274.828 343.109 275.062 344.797 275.062C346.391 275.062 347.891 274.969 349.297 274.781C350.797 274.594 352.297 274.5 353.797 274.5C355.109 274.5 356.281 274.828 357.312 275.484C358.344 276.047 359.375 276.75 360.406 277.594C361.438 278.344 362.469 279.047 363.5 279.703C364.625 280.359 365.844 280.734 367.156 280.828C369.031 281.766 370.578 282.609 371.797 283.359C373.016 284.109 374.094 284.906 375.031 285.75C376.062 286.594 377 287.625 377.844 288.844C378.781 290.062 379.812 291.562 380.938 293.344C381.969 295.125 383.328 296.672 385.016 297.984C386.703 299.297 388.062 300.891 389.094 302.766C389.469 303.422 389.703 304.219 389.797 305.156C389.891 306 390.031 306.844 390.219 307.688C390.406 308.438 390.688 309.141 391.062 309.797C391.531 310.359 392.234 310.688 393.172 310.781C393.266 311.812 393.312 312.844 393.312 313.875C393.406 314.812 393.453 315.797 393.453 316.828Z" fill="white"/>
<path d="M419.328 206.578C418.953 207.047 418.531 207.469 418.062 207.844C417.688 208.219 417.219 208.406 416.656 208.406C416 208.406 415.438 208.125 414.969 207.562C414.594 207 414.406 206.391 414.406 205.734C414.406 205.641 414.453 205.5 414.547 205.312C414.641 205.125 414.688 204.938 414.688 204.75L415.531 204.469C416.281 204.469 416.984 204.703 417.641 205.172C418.297 205.641 418.859 206.109 419.328 206.578ZM459.406 307.266C459.312 306.984 459.266 306.75 459.266 306.562C459.266 306.281 459.266 306.047 459.266 305.859L459.406 306.703V307.266ZM557.422 242.016C557.422 243.422 557.375 245.016 557.281 246.797C557.188 248.578 557 250.406 556.719 252.281C556.531 254.156 556.25 255.984 555.875 257.766C555.594 259.453 555.219 260.953 554.75 262.266C553.438 265.453 551.703 268.359 549.547 270.984C547.484 273.609 545.844 276.562 544.625 279.844C544.344 280.688 543.547 281.625 542.234 282.656C540.922 283.688 539.469 284.719 537.875 285.75C536.281 286.781 534.688 287.766 533.094 288.703C531.594 289.547 530.422 290.25 529.578 290.812C524.234 294.094 518.891 296.578 513.547 298.266C508.203 299.953 502.438 300.797 496.25 300.797H495.406C493.906 299.953 492.641 299.391 491.609 299.109C490.672 298.828 489.312 298.688 487.531 298.688C485.75 298.688 484.016 298.734 482.328 298.828C480.641 298.922 478.953 299.062 477.266 299.25C476.609 299.344 475.297 299.719 473.328 300.375C471.453 300.938 469.484 301.641 467.422 302.484C465.359 303.234 463.484 304.031 461.797 304.875C460.203 305.625 459.406 306.234 459.406 306.703V307.266C459.594 307.922 459.828 308.25 460.109 308.25C460.578 308.25 461 308.016 461.375 307.547C461.844 306.984 462.359 306.703 462.922 306.703C463.391 306.703 463.766 306.938 464.047 307.406C464.328 307.875 464.516 308.438 464.609 309.094C464.797 309.656 464.891 310.266 464.891 310.922C464.984 311.484 465.031 311.906 465.031 312.188C465.031 314.906 464.75 317.625 464.188 320.344C463.625 322.969 463.344 325.641 463.344 328.359C463.344 331.078 463.297 333.797 463.203 336.516C463.203 339.141 463.203 341.812 463.203 344.531C463.203 349.5 463.438 353.25 463.906 355.781C464.469 358.312 465.5 360.234 467 361.547C468.5 362.766 470.562 363.703 473.188 364.359C475.812 364.922 479.234 365.766 483.453 366.891C483.172 367.734 483.031 368.531 483.031 369.281C483.031 370.406 483.359 371.25 484.016 371.812C484.766 372.281 485.516 372.797 486.266 373.359C487.109 373.828 487.859 374.391 488.516 375.047C489.266 375.703 489.641 376.734 489.641 378.141C489.641 379.359 489.172 380.438 488.234 381.375C487.109 382.5 486.359 383.438 485.984 384.188C485.703 384.938 485.422 385.547 485.141 386.016C484.859 386.391 484.344 386.719 483.594 387C482.844 387.188 481.484 387.328 479.516 387.422C475.016 387.703 470.562 387.844 466.156 387.844C464.469 387.844 462.781 387.797 461.094 387.703C459.406 387.703 457.672 387.703 455.891 387.703C451.391 387.703 446.984 387.844 442.672 388.125C440.047 388.312 437.469 388.734 434.938 389.391C432.5 390.047 429.922 390.375 427.203 390.375C424.109 390.375 422 389.484 420.875 387.703C419.75 385.922 419.188 383.625 419.188 380.812C419.188 378.094 419.797 375.844 421.016 374.062C422.234 372.188 423.734 370.688 425.516 369.562C427.391 368.344 429.359 367.359 431.422 366.609C433.578 365.859 435.547 365.156 437.328 364.5C439.203 363.75 440.75 363 441.969 362.25C443.188 361.5 443.797 360.516 443.797 359.297C443.797 358.172 443.562 357.094 443.094 356.062C442.719 355.031 442.531 353.953 442.531 352.828C442.531 352.172 442.859 350.906 443.516 349.031C444.172 347.156 444.5 344.953 444.5 342.422C444.5 341.391 444.5 340.406 444.5 339.469C444.5 338.438 444.453 337.406 444.359 336.375C443.797 336.094 443.375 335.531 443.094 334.688C442.812 333.844 442.578 332.953 442.391 332.016C442.297 330.984 442.25 330 442.25 329.062C442.25 328.031 442.25 327.234 442.25 326.672C442.25 323.109 442.484 319.594 442.953 316.125C443.422 312.562 443.656 309 443.656 305.438C443.656 303.188 443.516 300.984 443.234 298.828C442.953 296.672 442.812 294.469 442.812 292.219C442.812 291.562 443 291.094 443.375 290.812C442.531 290.156 442.109 289.219 442.109 288C442.109 286.688 442.297 285.469 442.672 284.344C443.141 283.219 443.375 282.047 443.375 280.828C443.375 278.953 443.188 277.078 442.812 275.203C442.438 273.328 442.016 271.5 441.547 269.719C441.172 267.844 440.797 266.016 440.422 264.234C440.141 262.359 440 260.484 440 258.609C440 257.484 440.141 256.406 440.422 255.375C440.797 254.344 441.125 253.312 441.406 252.281C441.781 251.156 442.109 250.078 442.391 249.047C442.766 247.922 442.953 246.75 442.953 245.531C442.953 242.344 442.625 239.25 441.969 236.25C441.406 233.156 441.125 230.016 441.125 226.828C441.125 224.953 441.547 223.594 442.391 222.75C443.328 221.812 444.312 221.062 445.344 220.5C446.375 219.938 447.312 219.422 448.156 218.953C449.094 218.391 449.562 217.594 449.562 216.562C449.562 215.906 449.234 215.344 448.578 214.875C448.016 214.406 447.453 214.172 446.891 214.172C445.578 214.172 444.453 214.594 443.516 215.438C442.578 216.281 441.5 216.703 440.281 216.703C439.531 216.703 438.828 216.234 438.172 215.297C437.609 214.266 436.953 213.188 436.203 212.062C435.547 210.938 434.75 209.906 433.812 208.969C432.969 207.938 431.938 207.422 430.719 207.422C429.688 207.422 428.656 207.562 427.625 207.844C426.594 208.125 425.562 208.266 424.531 208.266C423.125 208.266 422.234 207.938 421.859 207.281C421.484 206.625 421.297 205.781 421.297 204.75C421.297 204.281 421.297 203.812 421.297 203.344C421.391 202.875 421.438 202.406 421.438 201.938C421.438 201.188 421.297 200.391 421.016 199.547C420.734 198.703 420.078 198.281 419.047 198.281C418.484 198.281 417.922 198.375 417.359 198.562C418.672 196.875 420.406 195.609 422.562 194.766C424.719 193.828 426.969 193.125 429.312 192.656C431.75 192.188 434.188 191.859 436.625 191.672C439.156 191.391 441.406 191.016 443.375 190.547C444.125 190.359 444.781 190.219 445.344 190.125C446 190.031 446.703 189.984 447.453 189.984C449.141 189.984 450.781 190.172 452.375 190.547C454.062 190.828 455.703 190.969 457.297 190.969C459.078 190.969 460.484 190.594 461.516 189.844C462.641 189 463.953 188.578 465.453 188.578C466.203 188.953 467.188 189.422 468.406 189.984C469.625 190.453 470.609 190.688 471.359 190.688C474.547 190.688 477.688 190.5 480.781 190.125C483.875 189.75 486.969 189.562 490.062 189.562C493.438 189.562 496.672 190.031 499.766 190.969C502.953 191.812 506.094 192.797 509.188 193.922C512.375 195.047 515.516 196.172 518.609 197.297C521.703 198.422 524.891 199.266 528.172 199.828C529.297 200.016 530.375 200.438 531.406 201.094C532.531 201.75 533.609 202.547 534.641 203.484C535.672 204.328 536.656 205.219 537.594 206.156C538.625 207.094 539.562 207.891 540.406 208.547C541.719 209.578 542.75 210.75 543.5 212.062C544.344 213.375 545.141 214.734 545.891 216.141C546.734 217.453 547.578 218.766 548.422 220.078C549.359 221.297 550.531 222.375 551.938 223.312C553.25 224.156 554.281 225.375 555.031 226.969C555.781 228.469 556.297 230.109 556.578 231.891C556.953 233.672 557.188 235.453 557.281 237.234C557.375 239.016 557.422 240.609 557.422 242.016ZM534.219 250.594C534.219 244.594 533.281 239.156 531.406 234.281C529.625 229.312 527 225.094 523.531 221.625C520.156 218.062 516.031 215.297 511.156 213.328C506.281 211.359 500.844 210.375 494.844 210.375C493.906 210.375 492.5 210.375 490.625 210.375C488.75 210.375 486.688 210.422 484.438 210.516C482.188 210.609 479.844 210.75 477.406 210.938C474.969 211.125 472.719 211.406 470.656 211.781C468.594 212.062 466.766 212.484 465.172 213.047C463.672 213.516 462.688 214.125 462.219 214.875C461.562 215.906 460.625 217.172 459.406 218.672C458.281 220.078 457.719 221.344 457.719 222.469C457.719 223.5 458 224.578 458.562 225.703C459.125 226.734 459.734 227.859 460.391 229.078C461.141 230.297 461.797 231.562 462.359 232.875C463.016 234.094 463.344 235.359 463.344 236.672C462.594 236.766 461.891 237 461.234 237.375C460.578 237.656 460.25 238.219 460.25 239.062C460.25 240.469 460.672 242.016 461.516 243.703C462.453 245.391 462.922 247.125 462.922 248.906C462.922 250.219 462.641 251.25 462.078 252C461.516 252.656 460.906 253.219 460.25 253.688C459.594 254.156 458.984 254.625 458.422 255.094C457.859 255.562 457.578 256.172 457.578 256.922C457.578 257.766 458.188 259.172 459.406 261.141C460.625 263.109 461.984 265.219 463.484 267.469C464.984 269.625 466.344 271.641 467.562 273.516C468.781 275.297 469.391 276.375 469.391 276.75C471.641 277.031 473.844 277.172 476 277.172C477.406 277.172 479.703 277.125 482.891 277.031C486.172 276.844 489.594 276.656 493.156 276.469C496.719 276.188 500.047 275.906 503.141 275.625C506.234 275.344 508.344 275.062 509.469 274.781C510.688 274.5 511.531 274.078 512 273.516C512.469 272.953 512.938 272.391 513.406 271.828C513.875 271.266 514.438 270.797 515.094 270.422C515.844 269.953 517.016 269.719 518.609 269.719C521.516 269.719 523.953 269.203 525.922 268.172C527.984 267.141 529.625 265.781 530.844 264.094C532.062 262.312 532.906 260.297 533.375 258.047C533.938 255.703 534.219 253.219 534.219 250.594Z" fill="white"/>
</g>
<defs>
<filter id="filter0_dd" x="0" y="0" width="616" height="616" filterUnits="userSpaceOnUse" color-interpolation-filters="sRGB">
<feFlood flood-opacity="0" result="BackgroundImageFix"/>
<feColorMatrix in="SourceAlpha" type="matrix" values="0 0 0 0 0 0 0 0 0 0 0 0 0 0 0 0 0 0 127 0"/>
<feOffset dx="8" dy="8"/>
<feGaussianBlur stdDeviation="3"/>
<feColorMatrix type="matrix" values="0 0 0 0 0.991719 0 0 0 0 0.977721 0 0 0 0 0.977721 0 0 0 0.6 0"/>
<feBlend mode="normal" in2="BackgroundImageFix" result="effect1_dropShadow"/>
<feColorMatrix in="SourceAlpha" type="matrix" values="0 0 0 0 0 0 0 0 0 0 0 0 0 0 0 0 0 0 127 0"/>
<feOffset dx="14" dy="14"/>
<feGaussianBlur stdDeviation="7"/>
<feColorMatrix type="matrix" values="0 0 0 0 0 0 0 0 0 0 0 0 0 0 0 0 0 0 0.25 0"/>
<feBlend mode="normal" in2="effect1_dropShadow" result="effect2_dropShadow"/>
<feBlend mode="normal" in="SourceGraphic" in2="effect2_dropShadow" result="shape"/>
</filter>
<filter id="filter1_i" x="48.5" y="184.5" width="509.922" height="207.016" filterUnits="userSpaceOnUse" color-interpolation-filters="sRGB">
<feFlood flood-opacity="0" result="BackgroundImageFix"/>
<feBlend mode="normal" in="SourceGraphic" in2="BackgroundImageFix" result="shape"/>
<feColorMatrix in="SourceAlpha" type="matrix" values="0 0 0 0 0 0 0 0 0 0 0 0 0 0 0 0 0 0 127 0" result="hardAlpha"/>
<feOffset dx="8" dy="8"/>
<feGaussianBlur stdDeviation="0.5"/>
<feComposite in2="hardAlpha" operator="arithmetic" k2="-1" k3="1"/>
<feColorMatrix type="matrix" values="0 0 0 0 0 0 0 0 0 0 0 0 0 0 0 0 0 0 0.21 0"/>
<feBlend mode="normal" in2="shape" result="effect1_innerShadow"/>
</filter>
<linearGradient id="paint0_linear" x1="294" y1="0" x2="294" y2="588" gradientUnits="userSpaceOnUse">
<stop offset="0.0666666" stop-color="#1D1391"/>
<stop offset="0.80625" stop-color="#3D72A4" stop-opacity="0"/>
</linearGradient>
</defs>
</svg>
